<svg width="26" height="26" viewBox="0 0 26 26" fill="none" xmlns="http://www.w3.org/2000/svg">
<path d="M19.4 0.840027H6.6C5.07308 0.842397 3.60938 1.45001 2.52968 2.52971C1.44998 3.60941 0.842366 5.07311 0.839996 6.60003V19.4C0.842366 20.9269 1.44998 22.3906 2.52968 23.4703C3.60938 24.55 5.07308 25.1577 6.6 25.16H19.4C20.9269 25.1577 22.3906 24.55 23.4703 23.4703C24.55 22.3906 25.1576 20.9269 25.16 19.4V6.60003C25.1576 5.07311 24.55 3.60941 23.4703 2.52971C22.3906 1.45001 20.9269 0.842397 19.4 0.840027V0.840027ZM20.3984 13.64H16.9936L14.8432 17.8768C14.7911 17.9814 14.7107 18.0693 14.6112 18.1304C14.5116 18.1915 14.3968 18.2234 14.28 18.2224H14.2416C14.1176 18.2181 13.9977 18.1768 13.8973 18.1038C13.7969 18.0308 13.7207 17.9295 13.6784 17.8128L11.0928 11.144L9.9536 13.2944C9.90278 13.4 9.82265 13.4887 9.72279 13.55C9.62292 13.6113 9.50754 13.6425 9.3904 13.64H5.6016C5.43186 13.64 5.26907 13.5726 5.14905 13.4526C5.02902 13.3326 4.9616 13.1698 4.9616 13C4.9616 12.8303 5.02902 12.6675 5.14905 12.5475C5.26907 12.4275 5.43186 12.36 5.6016 12.36H9.0064L10.6192 9.31363C10.6739 9.2029 10.7604 9.11093 10.8675 9.0494C10.9746 8.98786 11.0976 8.95954 11.2208 8.96803C11.3442 8.97464 11.463 9.01683 11.563 9.08952C11.6629 9.1622 11.7397 9.26227 11.784 9.37763L14.3568 16.0208L16.0336 12.7056C16.0905 12.6023 16.1738 12.5159 16.275 12.4552C16.3762 12.3945 16.4916 12.3616 16.6096 12.36H20.3984C20.5681 12.36 20.7309 12.4275 20.8509 12.5475C20.971 12.6675 21.0384 12.8303 21.0384 13C21.0384 13.1698 20.971 13.3326 20.8509 13.4526C20.7309 13.5726 20.5681 13.64 20.3984 13.64Z" fill="white"/>
</svg>
