<svg width="26" height="26" viewBox="0 0 26 26" fill="none" xmlns="http://www.w3.org/2000/svg">
<path d="M19.4 0.840088H6.6C5.07308 0.842458 3.60938 1.45007 2.52968 2.52977C1.44998 3.60947 0.842366 5.07317 0.839996 6.60009V19.4001C0.842366 20.927 1.44998 22.3907 2.52968 23.4704C3.60938 24.5501 5.07308 25.1577 6.6 25.1601H19.4C20.9269 25.1577 22.3906 24.5501 23.4703 23.4704C24.55 22.3907 25.1576 20.927 25.16 19.4001V6.60009C25.1576 5.07317 24.55 3.60947 23.4703 2.52977C22.3906 1.45007 20.9269 0.842458 19.4 0.840088ZM20.3984 13.6401H16.9936L14.8432 17.8769C14.7911 17.9815 14.7107 18.0693 14.6112 18.1305C14.5116 18.1916 14.3968 18.2234 14.28 18.2225H14.2416C14.1176 18.2182 13.9977 18.1769 13.8973 18.1039C13.7969 18.0309 13.7207 17.9296 13.6784 17.8129L11.0928 11.1441L9.9536 13.2945C9.90278 13.4001 9.82265 13.4888 9.72279 13.5501C9.62292 13.6113 9.50754 13.6426 9.3904 13.6401H5.6016C5.43186 13.6401 5.26907 13.5727 5.14905 13.4526C5.02902 13.3326 4.9616 13.1698 4.9616 13.0001C4.9616 12.8303 5.02902 12.6676 5.14905 12.5475C5.26907 12.4275 5.43186 12.3601 5.6016 12.3601H9.0064L10.6192 9.31369C10.6739 9.20296 10.7604 9.11099 10.8675 9.04946C10.9746 8.98792 11.0976 8.9596 11.2208 8.96809C11.3442 8.9747 11.463 9.0169 11.563 9.08958C11.6629 9.16226 11.7397 9.26233 11.784 9.37769L14.3568 16.0209L16.0336 12.7057C16.0905 12.6024 16.1738 12.5159 16.275 12.4552C16.3762 12.3945 16.4916 12.3617 16.6096 12.3601H20.3984C20.5681 12.3601 20.7309 12.4275 20.8509 12.5475C20.971 12.6676 21.0384 12.8303 21.0384 13.0001C21.0384 13.1698 20.971 13.3326 20.8509 13.4526C20.7309 13.5727 20.5681 13.6401 20.3984 13.6401Z" fill="#A098AE"/>
</svg>
